<svg width="1440" height="4096" viewBox="0 0 1440 4096" fill="none" xmlns="http://www.w3.org/2000/svg">
<g clip-path="url(#clip0_52_507)">
<rect x="-7.11719" y="788" width="100" height="100" transform="rotate(15 -7.11719 788)" fill="#6100FF" fill-opacity="0.7"/>
<path d="M1081.86 734.673L1099.23 849.49L1196.95 750.144L1081.86 734.673Z" fill="#00FFBF" fill-opacity="0.7"/>
<circle cx="1388" cy="1021" r="36" fill="#FFD32B" fill-opacity="0.7"/>
<circle cx="17" cy="276" r="50" fill="#00FFBF" fill-opacity="0.7"/>
<path fill-rule="evenodd" clip-rule="evenodd" d="M1565.7 326L1247 142L1063 460.697L1381.7 644.697L1565.7 326ZM1550.72 330.025L1251.08 157.025L1078.08 456.67L1377.72 629.67L1550.72 330.025Z" fill="#FF400A" fill-opacity="0.7"/>
<path fill-rule="evenodd" clip-rule="evenodd" d="M259.864 1456.87L294.126 1372.24L366.115 1428.4L259.864 1456.87ZM280.484 1439.33L299.337 1392.36L339.15 1423.61L280.484 1439.33Z" fill="#FFD32B" fill-opacity="0.7"/>
<path d="M995.084 1180.86L968.909 1083.17L944.753 1089.65L920.596 1096.12L946.771 1193.8L848.174 1220.22L854.647 1244.38L861.12 1268.54L959.716 1242.12L985.89 1339.8L1010.05 1333.33L1034.2 1326.86L1008.03 1229.17L1105.71 1203L1099.24 1178.84L1092.77 1154.68L995.084 1180.86Z" fill="#FF400A" fill-opacity="0.7"/>
<rect x="1057" y="1643.84" width="100" height="100" transform="rotate(-5.64789 1057 1643.84)" fill="#00FFBF" fill-opacity="0.7"/>
<path fill-rule="evenodd" clip-rule="evenodd" d="M1466.5 2048C1509.85 2048 1545 2012.85 1545 1969.5C1545 1926.15 1509.85 1891 1466.5 1891C1423.15 1891 1388 1926.15 1388 1969.5C1388 2012.85 1423.15 2048 1466.5 2048ZM1466.5 2040.64C1505.79 2040.64 1537.64 2008.79 1537.64 1969.5C1537.64 1930.21 1505.79 1898.36 1466.5 1898.36C1427.21 1898.36 1395.36 1930.21 1395.36 1969.5C1395.36 2008.79 1427.21 2040.64 1466.5 2040.64Z" fill="#FF400A" fill-opacity="0.7"/>
<path fill-rule="evenodd" clip-rule="evenodd" d="M55 2560C157.725 2560 241 2476.72 241 2374C241 2271.28 157.725 2188 55 2188C-47.725 2188 -131 2271.28 -131 2374C-131 2476.72 -47.725 2560 55 2560ZM55 2542.56C148.095 2542.56 223.562 2467.09 223.562 2374C223.562 2280.91 148.095 2205.44 55 2205.44C-38.0945 2205.44 -113.562 2280.91 -113.562 2374C-113.562 2467.09 -38.0945 2542.56 55 2542.56Z" fill="#FFD32B" fill-opacity="0.7"/>
<path d="M1131.63 2619.83L938 2609.54L1068.62 2803.21L1131.63 2619.83Z" fill="#FF400A" fill-opacity="0.7"/>
<path d="M48.648 1741.97L13.9731 1732.68L11.6755 1741.25L9.3779 1749.83L44.0527 1759.12L34.6748 1794.12L43.2497 1796.41L51.8245 1798.71L61.2024 1763.71L95.8772 1773L98.1748 1764.43L100.472 1755.85L65.7976 1746.56L75.0887 1711.89L66.5139 1709.59L57.9391 1707.29L48.648 1741.97Z" fill="#6100FF" fill-opacity="0.7"/>
<path d="M1335.88 2274.53L1308.89 2254L1303.81 2260.67L1298.73 2267.35L1325.72 2287.88L1304.99 2315.13L1311.67 2320.21L1318.35 2325.29L1339.08 2298.04L1366.07 2318.58L1371.15 2311.9L1376.23 2305.23L1349.23 2284.69L1369.77 2257.7L1363.09 2252.62L1356.42 2247.54L1335.88 2274.53Z" stroke="#6100FF" stroke-opacity="0.7" stroke-width="5"/>
<rect x="-27" y="3420.85" width="100" height="100" transform="rotate(-5.64789 -27 3420.85)" fill="#FFD32B" fill-opacity="0.7"/>
<circle cx="413.5" cy="3808.5" r="38.5" fill="#6100FF" fill-opacity="0.6"/>
<path fill-rule="evenodd" clip-rule="evenodd" d="M997 3472.25L1338.33 3085.97L1616.16 3520.17L997 3472.25ZM1139.72 3417.59L1328.29 3202.9L1481.59 3444.05L1139.72 3417.59Z" fill="#00FFBF" fill-opacity="0.7"/>
<path d="M1274.32 3943.8L1281.54 3916.86L1274.87 3915.07L1268.21 3913.29L1260.99 3940.23L1233.79 3932.95L1232.01 3939.61L1230.22 3946.27L1257.42 3953.56L1250.2 3980.5L1256.86 3982.29L1263.52 3984.08L1270.74 3957.13L1297.69 3964.35L1299.48 3957.69L1301.26 3951.02L1274.32 3943.8Z" fill="#FFD32B" fill-opacity="0.7"/>
<path d="M171.624 3011.29L124.902 2986.51L118.774 2998.07L112.646 3009.62L159.367 3034.4L134.355 3081.56L145.909 3087.69L157.462 3093.82L182.475 3046.66L229.197 3071.44L235.325 3059.89L241.454 3048.33L194.732 3023.55L219.513 2976.83L207.959 2970.7L196.405 2964.57L171.624 3011.29Z" stroke="#FF400A" stroke-opacity="0.7" stroke-width="5"/>
</g>
<rect x="0.5" y="0.5" width="1439" height="4095" stroke="black"/>
<defs>
<clipPath id="clip0_52_507">
<rect width="1440" height="4096" fill="white"/>
</clipPath>
</defs>
</svg>
