<svg width="24" height="24" viewBox="0 0 24 24" fill="none" xmlns="http://www.w3.org/2000/svg">
<g clip-path="url(#clip0_40_42)">
<path d="M20.229 16.166C20.3302 16.1078 20.4144 16.024 20.473 15.923C20.5317 15.8218 20.5628 15.707 20.563 15.59L20.575 11.732C20.5752 11.615 20.6063 11.5002 20.665 11.399C20.7239 11.2979 20.8084 11.2141 20.91 11.156L23 9.953C23.1014 9.89502 23.2162 9.86468 23.333 9.865C23.45 9.86529 23.5648 9.89632 23.666 9.955C23.7672 10.0132 23.8513 10.097 23.91 10.198C23.9684 10.2993 23.9991 10.4141 23.999 10.531V17.545C23.9989 17.6623 23.9679 17.7775 23.9091 17.879C23.8503 17.9804 23.7657 18.0646 23.664 18.123L15.771 22.657C15.6702 22.7147 15.5561 22.7451 15.44 22.7451C15.3239 22.7451 15.2098 22.7147 15.109 22.657L8.915 19.115C8.81294 19.0568 8.72808 18.9726 8.669 18.871C8.60998 18.7692 8.57893 18.6537 8.579 18.536V14.999C8.579 14.995 8.583 14.993 8.587 14.995C8.591 14.997 8.595 14.995 8.595 14.99V14.986C8.595 14.983 8.597 14.981 8.599 14.979L13.701 12.049C13.705 12.046 13.703 12.039 13.698 12.039C13.6972 12.039 13.6965 12.0388 13.6958 12.0385C13.6951 12.0381 13.6945 12.0376 13.694 12.037C13.6936 12.0364 13.6932 12.0358 13.6931 12.0351C13.6929 12.0344 13.6929 12.0337 13.693 12.033L13.703 8.566C13.7035 8.44857 13.6729 8.33309 13.6144 8.23125C13.556 8.12941 13.4717 8.04481 13.37 7.986C13.2686 7.92746 13.1536 7.89664 13.0365 7.89664C12.9194 7.89664 12.8044 7.92746 12.703 7.986L8.912 10.172C8.81084 10.2302 8.69619 10.2608 8.5795 10.2608C8.46281 10.2608 8.34816 10.2302 8.247 10.172L4.443 7.982C4.34169 7.92386 4.22689 7.89334 4.11008 7.89351C3.99327 7.89367 3.87855 7.9245 3.7774 7.98292C3.67625 8.04134 3.59222 8.12531 3.53371 8.2264C3.4752 8.3275 3.44426 8.44219 3.444 8.559V14.826C3.44404 14.9428 3.4134 15.0576 3.35513 15.1589C3.29687 15.2601 3.21303 15.3443 3.112 15.403C3.01113 15.4616 2.89664 15.4926 2.78 15.493C2.66321 15.4933 2.54838 15.463 2.447 15.405L0.336001 14.198C0.233939 14.1398 0.149076 14.0556 0.0900015 13.954C0.0308111 13.8519 -0.000245003 13.736 1.45555e-06 13.618L0.0190015 2.665C0.0193641 2.54834 0.0503193 2.43381 0.108777 2.33285C0.167235 2.23189 0.251151 2.14803 0.352149 2.08964C0.453147 2.03125 0.567694 2.00037 0.684357 2.00008C0.80102 1.99979 0.915717 2.03011 1.017 2.088L8.247 6.241C8.34816 6.29917 8.46281 6.32979 8.5795 6.32979C8.69619 6.32979 8.81084 6.29917 8.912 6.241L16.14 2.088C16.2414 2.02998 16.3562 1.99963 16.473 2C16.59 2.00024 16.7048 2.03128 16.806 2.09C16.9073 2.14853 16.9915 2.23268 17.05 2.334C17.108 2.43538 17.1383 2.55021 17.138 2.667V13.623C17.138 13.74 17.108 13.855 17.049 13.957C16.9902 14.0585 16.9057 14.1426 16.804 14.201L13.019 16.381C12.9172 16.4397 12.8327 16.5242 12.774 16.626C12.7155 16.7276 12.6848 16.8428 12.685 16.96C12.6851 17.0773 12.7162 17.1925 12.775 17.294C12.8343 17.3957 12.9195 17.4799 13.022 17.538L15.11 18.727C15.2106 18.784 15.3243 18.814 15.44 18.814C15.5565 18.8139 15.671 18.7832 15.772 18.725L20.229 16.165V16.166ZM20.667 6.338C20.6669 6.45566 20.6979 6.57125 20.757 6.673C20.8166 6.77487 20.9022 6.85908 21.005 6.917C21.1075 6.97489 21.2234 7.00465 21.3411 7.00324C21.4588 7.00184 21.574 6.96932 21.675 6.909L23.676 5.709C23.7747 5.64983 23.8563 5.56611 23.913 5.466C23.97 5.3657 23.9999 5.25235 24 5.137V2.693C23.9998 2.57526 23.9684 2.45968 23.909 2.358C23.8495 2.25632 23.7641 2.17221 23.6615 2.11425C23.5589 2.05628 23.4428 2.02653 23.325 2.028C23.2073 2.02932 23.0921 2.06175 22.991 2.122L20.991 3.322C20.892 3.38104 20.81 3.46477 20.753 3.565C20.6964 3.66542 20.6668 3.77875 20.667 3.894V6.339V6.338Z" fill="#007FFF"/>
</g>
<defs>
<clipPath id="clip0_40_42">
<rect width="24" height="24" fill="white"/>
</clipPath>
</defs>
</svg>
