<svg width="35" height="35" viewBox="0 0 35 35" fill="none" xmlns="http://www.w3.org/2000/svg">
<g clip-path="url(#clip0_609_2125)">
<path d="M1 17.7002C1 8.5875 8.3873 1.2002 17.5 1.2002V1.2002C26.6127 1.2002 34 8.5875 34 17.7002V18.699C34 27.7798 26.5801 35.1102 17.5 35V35V35C8.41986 35.1102 1 27.7798 1 18.699V17.7002Z" fill="white"/>
<path d="M16.3539 0.0592233C16.2786 0.0660649 16.0391 0.0900106 15.8236 0.107115C10.8524 0.55524 6.19599 3.23715 3.24682 7.35923C1.60459 9.65117 0.554252 12.251 0.15738 15.0047C0.0171065 15.966 0 16.2499 0 17.5532C0 18.8566 0.0171065 19.1405 0.15738 20.1017C1.1085 26.6731 5.78543 32.1943 12.1285 34.2399C13.2644 34.606 14.4619 34.8557 15.8236 35.0062C16.3539 35.0643 18.6461 35.0643 19.1764 35.0062C21.5269 34.7462 23.5181 34.1647 25.4819 33.1624C25.783 33.0084 25.8412 32.9674 25.8001 32.9332C25.7727 32.9127 24.4897 31.192 22.9501 29.1121L20.1515 25.3321L16.6447 20.1428C14.7151 17.2898 13.1276 14.9568 13.1139 14.9568C13.1002 14.9534 13.0865 17.259 13.0797 20.0744C13.0694 25.0037 13.066 25.2022 13.0044 25.3185C12.9154 25.4861 12.847 25.5545 12.7033 25.6298C12.5938 25.6845 12.498 25.6948 11.9814 25.6948H11.3895L11.2322 25.5955C11.1295 25.5306 11.0543 25.445 11.0029 25.3458L10.9311 25.1919L10.9379 18.3332L10.9482 11.471L11.0543 11.3376C11.109 11.2658 11.2253 11.1734 11.3074 11.129C11.4477 11.0605 11.5024 11.0537 12.0943 11.0537C12.7923 11.0537 12.9086 11.0811 13.0899 11.2795C13.1413 11.3342 15.0401 14.194 17.3118 17.6388C19.5836 21.0835 22.6901 25.7871 24.216 28.0962L26.9873 32.2935L27.1276 32.2011C28.3695 31.3938 29.6833 30.2444 30.7234 29.0471C32.937 26.5055 34.3636 23.4062 34.8426 20.1017C34.9829 19.1405 35 18.8566 35 17.5532C35 16.2499 34.9829 15.966 34.8426 15.0047C33.8915 8.43336 29.2146 2.91218 22.8715 0.866534C21.7527 0.503928 20.5621 0.254209 19.2278 0.103694C18.8993 0.0694857 16.6378 0.0318569 16.3539 0.0592233ZM23.5181 10.6432C23.6823 10.7253 23.8157 10.8827 23.8636 11.0469C23.891 11.1358 23.8978 13.0378 23.891 17.324L23.8807 23.4746L22.7962 21.8121L21.7082 20.1496V15.6786C21.7082 12.788 21.7219 11.1632 21.7424 11.0845C21.7972 10.8929 21.9169 10.7424 22.0811 10.6535C22.2214 10.5816 22.2727 10.5748 22.8099 10.5748C23.3162 10.5748 23.4052 10.5816 23.5181 10.6432Z" fill="black"/>
</g>
<defs>
<clipPath id="clip0_609_2125">
<rect width="35" height="35" fill="white"/>
</clipPath>
</defs>
</svg>
