<svg width="35" height="35" viewBox="0 0 35 35" fill="none" xmlns="http://www.w3.org/2000/svg">
<g clip-path="url(#clip0_610_2163)">
<mask id="mask0_610_2163" style="mask-type:luminance" maskUnits="userSpaceOnUse" x="0" y="6" width="35" height="21">
<path d="M0.708618 16.9273C0.708618 22.4174 8.32346 26.8682 17.7165 26.8682C27.1095 26.8682 34.7244 22.4174 34.7244 16.9273C34.7244 11.4372 27.1095 6.98645 17.7165 6.98645C8.32346 6.98645 0.708618 11.4372 0.708618 16.9273Z" fill="white"/>
</mask>
<g mask="url(#mask0_610_2163)">
<path d="M0.708618 16.9273C0.708618 22.4174 8.32346 26.8682 17.7165 26.8682C27.1095 26.8682 34.7244 22.4174 34.7244 16.9273C34.7244 11.4372 27.1095 6.98645 17.7165 6.98645C8.32346 6.98645 0.708618 11.4372 0.708618 16.9273Z" fill="url(#paint0_radial_610_2163)"/>
</g>
<mask id="mask1_610_2163" style="mask-type:luminance" maskUnits="userSpaceOnUse" x="0" y="5" width="36" height="23">
<path d="M0 5.85437H35.433V28H0V5.85437Z" fill="white"/>
</mask>
<g mask="url(#mask1_610_2163)">
<path d="M17.7165 26.1299C26.7427 26.1299 34.06 22.0096 34.06 16.9271C34.06 11.8446 26.7427 7.72427 17.7165 7.72427C8.69039 7.72427 1.37305 11.8446 1.37305 16.9271C1.37305 22.0096 8.69039 26.1299 17.7165 26.1299Z" fill="#777BB3"/>
</g>
<mask id="mask2_610_2163" style="mask-type:luminance" maskUnits="userSpaceOnUse" x="0" y="5" width="36" height="23">
<path d="M0 5.85437H35.433V28H0V5.85437Z" fill="white"/>
</mask>
<g mask="url(#mask2_610_2163)">
<path d="M9.94923 18.0685C10.6914 18.0685 11.2455 17.9164 11.5961 17.6166C11.9429 17.3199 12.1824 16.8058 12.308 16.0887C12.4251 15.4185 12.3805 14.9505 12.1755 14.6979C11.9659 14.44 11.5128 14.3092 10.8287 14.3092H9.64264L8.9851 18.0685H9.94923ZM6.06987 22.6992C6.01482 22.6992 5.96253 22.6719 5.92753 22.6246C5.89246 22.5773 5.87825 22.5152 5.88877 22.4551L7.63139 12.4929C7.64824 12.3966 7.72421 12.327 7.81255 12.327H11.5683C12.7487 12.327 13.6273 12.6831 14.1795 13.3855C14.7347 14.0917 14.9061 15.0787 14.689 16.3192C14.6007 16.8246 14.4487 17.294 14.2374 17.7142C14.0259 18.1349 13.7463 18.5242 13.4063 18.8714C12.9993 19.2946 12.5387 19.6015 12.0384 19.7821C11.5461 19.9603 10.9139 20.0506 10.1592 20.0506H8.63846L8.20416 22.5333C8.1873 22.6296 8.11139 22.6992 8.02306 22.6992H6.06987Z" fill="black"/>
<path d="M9.79476 14.5142H10.8287C11.6543 14.5142 11.9411 14.7155 12.0385 14.8355C12.2002 15.0347 12.2307 15.4546 12.1268 16.0499C12.0101 16.7163 11.7936 17.1888 11.4835 17.4541C11.1659 17.7258 10.6497 17.8634 9.94922 17.8634H9.20894L9.79476 14.5142ZM11.5683 12.122H7.81248C7.6358 12.122 7.48392 12.2611 7.45021 12.4538L5.70759 22.416C5.68656 22.5362 5.71498 22.6606 5.78504 22.7551C5.85517 22.8496 5.95962 22.9043 6.06986 22.9043H8.02298C8.19972 22.9043 8.3516 22.7651 8.38531 22.5725L8.79057 20.2557H10.1592C10.9332 20.2557 11.5848 20.1619 12.0957 19.977C12.6211 19.7874 13.1045 19.4658 13.5323 19.0212C13.8862 18.6595 14.1776 18.2535 14.3985 17.8144C14.6194 17.3751 14.7781 16.8852 14.8702 16.3583C15.0987 15.0526 14.913 14.0069 14.3184 13.2507C13.7296 12.5017 12.8043 12.122 11.5683 12.122ZM8.76117 18.2735H9.94922C10.7367 18.2735 11.3232 18.1087 11.7086 17.7791C12.0941 17.4494 12.3541 16.8991 12.4891 16.1279C12.6184 15.3876 12.5595 14.8651 12.3125 14.5607C12.0652 14.2564 11.5707 14.1041 10.8287 14.1041H9.4905L8.76117 18.2735ZM11.5683 12.5321C12.6982 12.5321 13.5224 12.8615 14.0405 13.5205C14.5585 14.1795 14.7145 15.0993 14.5078 16.2802C14.4228 16.7666 14.2789 17.2114 14.0763 17.6143C13.8735 18.0175 13.6087 18.3862 13.2814 18.7205C12.8914 19.126 12.4581 19.415 11.9814 19.5871C11.5046 19.7597 10.8974 19.8456 10.1592 19.8456H8.48626L8.02298 22.4942H6.06986L7.81248 12.5321H11.5683Z" fill="white"/>
<path d="M19.1672 20.0508C19.1121 20.0508 19.0599 20.0234 19.0249 19.9761C18.9898 19.9289 18.9755 19.8668 18.9861 19.8066L19.7569 15.3988C19.8302 14.9796 19.8122 14.6787 19.706 14.5516C19.6411 14.4738 19.446 14.3435 18.869 14.3435H17.4725L16.5033 19.8848C16.4864 19.9812 16.4105 20.0508 16.3221 20.0508H14.3844C14.3293 20.0508 14.277 20.0234 14.242 19.9761C14.2069 19.9289 14.1927 19.8667 14.2032 19.8066L15.9458 9.84445C15.9627 9.74814 16.0387 9.67856 16.127 9.67856H18.0647C18.1199 9.67856 18.1721 9.7059 18.2072 9.75313C18.2422 9.80043 18.2564 9.86256 18.2459 9.92271L17.8254 12.3272H19.3277C20.4722 12.3272 21.2483 12.5513 21.7003 13.0126C22.1611 13.4831 22.3048 14.2354 22.1277 15.2489L21.3169 19.8848C21.3 19.9812 21.2241 20.0508 21.1357 20.0508H19.1672Z" fill="black"/>
<path d="M18.0647 9.47353H16.127C15.9503 9.47353 15.7984 9.6127 15.7647 9.80538L14.022 19.7676C14.001 19.8878 14.0294 20.0121 14.0996 20.1066C14.1697 20.2012 14.2741 20.2559 14.3844 20.2559H16.3221C16.4988 20.2559 16.6507 20.1167 16.6844 19.924L17.6246 14.5486H18.869C19.445 14.5486 19.5658 14.6853 19.5707 14.6912C19.6056 14.7329 19.6516 14.9263 19.5757 15.3597L18.8049 19.7676C18.7838 19.8878 18.8123 20.0121 18.8824 20.1066C18.9525 20.2012 19.057 20.2559 19.1672 20.2559H21.1357C21.3124 20.2559 21.4643 20.1167 21.498 19.924L22.3088 15.2881C22.499 14.1999 22.3363 13.3836 21.8252 12.8617C21.3375 12.364 20.5206 12.1221 19.3277 12.1221H18.0492L18.4271 9.9619C18.448 9.84167 18.4197 9.71727 18.3495 9.62281C18.2794 9.52828 18.175 9.47353 18.0647 9.47353ZM18.0647 9.88364L17.6015 12.5322H19.3277C20.4139 12.5322 21.1631 12.7429 21.5754 13.1637C21.9878 13.5847 22.1113 14.2669 21.9465 15.2099L21.1357 19.8458H19.1672L19.9381 15.438C20.0258 14.9365 19.9936 14.5945 19.8412 14.4121C19.6889 14.2298 19.3647 14.1385 18.869 14.1385H17.3203L16.3221 19.8458H14.3844L16.127 9.88364H18.0647Z" fill="white"/>
<path d="M25.1937 18.0685C25.9359 18.0685 26.49 17.9164 26.8406 17.6166C27.1874 17.3199 27.4269 16.8059 27.5525 16.0887C27.6696 15.4185 27.625 14.9505 27.42 14.6979C27.2104 14.44 26.7573 14.3092 26.0732 14.3092H24.8871L24.2296 18.0685H25.1937ZM21.3144 22.6992C21.2594 22.6992 21.2071 22.6719 21.1721 22.6246C21.137 22.5773 21.1228 22.5152 21.1333 22.4551L22.8759 12.4929C22.8928 12.3966 22.9687 12.327 23.0571 12.327H26.8128C27.9932 12.327 28.8718 12.6831 29.424 13.3855C29.9792 14.0916 30.1506 15.0787 29.9336 16.3192C29.8451 16.8246 29.6932 17.294 29.4819 17.7142C29.2704 18.1349 28.9908 18.5242 28.6508 18.8714C28.2438 19.2946 27.7832 19.6015 27.2829 19.7821C26.7906 19.9603 26.1584 20.0506 25.4037 20.0506H23.8829L23.4488 22.5333C23.4319 22.6296 23.356 22.6992 23.2676 22.6992H21.3144Z" fill="black"/>
<path d="M25.0393 14.5142H26.0733C26.8989 14.5142 27.1857 14.7155 27.2831 14.8355C27.4448 15.0347 27.4753 15.4546 27.3714 16.0498C27.2546 16.7163 27.0382 17.1888 26.7281 17.4541C26.4105 17.7258 25.8943 17.8634 25.1938 17.8634H24.4536L25.0393 14.5142ZM26.8129 12.122H23.0571C22.8804 12.122 22.7285 12.2611 22.6948 12.4538L20.9522 22.416C20.9312 22.5362 20.9596 22.6606 21.0297 22.7551C21.0998 22.8496 21.2043 22.9043 21.3145 22.9043H23.2676C23.4443 22.9043 23.5962 22.7651 23.6299 22.5725L24.0351 20.2557H25.4038C26.1778 20.2557 26.8294 20.1619 27.3403 19.977C27.8657 19.7874 28.3492 19.4657 28.777 19.0211C29.1309 18.6594 29.4222 18.2535 29.643 17.8144C29.8639 17.3751 30.0226 16.8852 30.1147 16.3583C30.3433 15.0525 30.1576 14.0069 29.563 13.2506C28.9742 12.5017 28.0489 12.122 26.8129 12.122ZM24.0058 18.2735H25.1938C25.9813 18.2735 26.5678 18.1087 26.9532 17.7791C27.3387 17.4494 27.5986 16.8991 27.7337 16.1279C27.863 15.3876 27.8041 14.8651 27.5571 14.5607C27.3098 14.2564 26.8153 14.1041 26.0733 14.1041H24.7351L24.0058 18.2735ZM26.8129 12.5321C27.9427 12.5321 28.767 12.8615 29.2851 13.5205C29.8032 14.1795 29.9591 15.0993 29.7524 16.2802C29.6673 16.7666 29.5234 17.2114 29.3209 17.6143C29.1181 18.0175 28.8532 18.3862 28.526 18.7205C28.136 19.126 27.7027 19.415 27.226 19.5871C26.7492 19.7597 26.142 19.8456 25.4038 19.8456H23.7308L23.2676 22.4942H21.3145L23.0571 12.5321H26.8129Z" fill="white"/>
</g>
</g>
<defs>
<radialGradient id="paint0_radial_610_2163" cx="0" cy="0" r="1" gradientUnits="userSpaceOnUse" gradientTransform="translate(10.9202 10.4813) scale(22.3337 24.8153)">
<stop stop-color="#AEB2D5"/>
<stop offset="0.3" stop-color="#AEB2D5"/>
<stop offset="0.75" stop-color="#484C89"/>
<stop offset="1" stop-color="#484C89"/>
</radialGradient>
<clipPath id="clip0_610_2163">
<rect width="35" height="35" fill="white"/>
</clipPath>
</defs>
</svg>
