<?xml version="1.0" standalone="no"?>
<!DOCTYPE svg PUBLIC "-//W3C//DTD SVG 20010904//EN"
 "http://www.w3.org/TR/2001/REC-SVG-20010904/DTD/svg10.dtd">
<svg version="1.0" xmlns="http://www.w3.org/2000/svg"
 width="700.000000pt" height="700.000000pt" viewBox="0 0 700.000000 700.000000"
 preserveAspectRatio="xMidYMid meet">
<metadata>
Created by potrace 1.14, written by Peter Selinger 2001-2017
</metadata>
<g transform="translate(0.000000,700.000000) scale(0.100000,-0.100000)"
fill="#000000" stroke="none">
<path d="M3125 6624 c-607 -73 -1181 -320 -1645 -708 -472 -395 -814 -913
-995 -1511 -45 -150 -89 -370 -110 -545 -17 -156 -20 -497 -5 -651 61 -606
291 -1172 670 -1649 107 -135 355 -382 494 -493 1068 -849 2550 -913 3684
-160 1136 754 1653 2162 1276 3475 -110 384 -289 734 -548 1068 -103 134 -370
403 -506 510 -480 380 -1043 609 -1649 670 -144 14 -522 11 -666 -6z m205
-2274 l0 -190 -765 0 -765 0 0 -615 c0 -658 0 -656 50 -700 22 -20 40 -20 749
-25 l726 -5 3 -193 2 -193 -732 3 c-803 4 -774 2 -906 65 -71 35 -180 141
-216 210 -57 113 -56 101 -56 930 0 741 1 765 20 803 20 38 57 72 101 89 15 6
379 10 907 10 l882 1 0 -190z m2330 0 l0 -190 -765 0 -765 0 0 -865 0 -865
-190 0 -190 0 0 983 0 982 26 44 c27 48 51 69 99 88 22 8 261 12 908 12 l877
1 0 -190z m-2502 -862 l-3 -193 -602 -3 -603 -2 0 195 0 195 605 0 605 0 -2
-192z m2332 -3 l0 -195 -602 2 -603 3 -3 193 -2 192 605 0 605 0 0 -195z"/>
</g>
</svg>
