<svg width="256" height="256" viewBox="0 0 256 256" fill="none" xmlns="http://www.w3.org/2000/svg">
<circle cx="128" cy="128" r="116" fill="black"/>
<path d="M115.436 135.525H71.3389V121.453H115.436V135.525ZM121.72 167H71.3389C69.4053 167 67.2926 166.66 65.001 165.979C62.7093 165.299 60.5788 164.189 58.6094 162.649C56.6758 161.074 55.0465 159.051 53.7217 156.58C52.4326 154.074 51.7881 151.012 51.7881 147.396V97.0146C51.7881 96.0479 51.9671 95.1348 52.3252 94.2754C52.6833 93.416 53.1667 92.6641 53.7754 92.0195C54.4199 91.375 55.1719 90.8737 56.0312 90.5156C56.8906 90.1576 57.8216 89.9785 58.8242 89.9785H121.72V103.943H65.7529V147.396C65.7529 149.222 66.2363 150.618 67.2031 151.585C68.1699 152.552 69.5843 153.035 71.4463 153.035H121.72V167Z" fill="white"/>
<path d="M200.812 135.525H156.661V121.453H200.812V135.525ZM207.042 103.943H151.075V167H137.11V97.0146C137.11 96.0479 137.289 95.1348 137.647 94.2754C138.006 93.416 138.489 92.6641 139.098 92.0195C139.742 91.375 140.494 90.8737 141.354 90.5156C142.213 90.1576 143.144 89.9785 144.146 89.9785H207.042V103.943Z" fill="white"/>
<path fill-rule="evenodd" clip-rule="evenodd" d="M128 256C198.692 256 256 198.692 256 128C256 57.3076 198.692 0 128 0C57.3076 0 0 57.3076 0 128C0 198.692 57.3076 256 128 256ZM127.5 242C190.737 242 242 190.737 242 127.5C242 64.2634 190.737 13 127.5 13C64.2634 13 13 64.2634 13 127.5C13 190.737 64.2634 242 127.5 242Z" fill="white"/>
</svg>
