<svg width="24" height="24" viewBox="0 0 24 24" fill="none" xmlns="http://www.w3.org/2000/svg">
<rect x="3" y="8" width="19" height="9" fill="black"/>
<path d="M22.27 19.77H1.73C1.50281 19.77 1.27785 19.7253 1.06796 19.6383C0.858064 19.5514 0.667351 19.4239 0.506705 19.2633C0.34606 19.1026 0.218629 18.9119 0.131688 18.702C0.0447478 18.4921 0 18.2672 0 18.04L0 6.73C0 6.27118 0.182267 5.83114 0.506705 5.50671C0.831143 5.18227 1.27118 5 1.73 5H22.27C22.4972 5 22.7221 5.04475 22.932 5.13169C23.1419 5.21863 23.3327 5.34606 23.4933 5.50671C23.6539 5.66735 23.7814 5.85806 23.8683 6.06796C23.9553 6.27785 24 6.50281 24 6.73V18.038C24.0001 18.2653 23.9555 18.4903 23.8686 18.7003C23.7817 18.9104 23.6543 19.1012 23.4936 19.2619C23.333 19.4227 23.1422 19.5502 22.9323 19.6372C22.7223 19.7242 22.4973 19.769 22.27 19.769V19.77ZM5.769 16.308V11.808L8.077 14.693L10.384 11.808V16.308H12.692V8.463H10.384L8.077 11.348L5.769 8.463H3.46V16.31L5.769 16.308ZM21.232 12.385H18.923V8.462H16.616V12.385H14.308L17.769 16.424L21.232 12.385Z" fill="white"/>
</svg>
