<svg width="24" height="24" viewBox="0 0 24 24" fill="none" xmlns="http://www.w3.org/2000/svg">
<path d="M14.23 11.69C14.23 12.2829 13.9946 12.8514 13.5754 13.2707C13.1563 13.69 12.5879 13.9257 11.995 13.926C11.402 13.926 10.8332 13.6904 10.4139 13.2711C9.99458 12.8518 9.759 12.283 9.759 11.69C9.759 11.0971 9.99444 10.5286 10.4136 10.1093C10.8327 9.68996 11.4011 9.45426 11.994 9.454C12.587 9.454 13.1558 9.68958 13.5751 10.1089C13.9944 10.5282 14.23 11.097 14.23 11.69V11.69ZM16.878 1C15.532 1 13.771 1.96 11.99 3.622C10.21 1.969 8.448 1.02 7.103 1.02C6.693 1.02 6.32 1.113 5.997 1.298C4.622 2.091 4.314 4.562 5.024 7.663C1.98 8.603 0 10.106 0 11.69C0 13.28 1.99 14.787 5.043 15.72C4.339 18.833 4.653 21.308 6.031 22.1C6.351 22.287 6.721 22.375 7.133 22.375C8.478 22.375 10.24 21.415 12.021 19.751C13.801 21.405 15.563 22.354 16.908 22.354C17.318 22.354 17.691 22.264 18.014 22.079C19.388 21.287 19.697 18.816 18.987 15.714C22.02 14.782 24 13.276 24 11.69C24 10.1 22.01 8.593 18.957 7.658C19.661 4.548 19.347 2.071 17.969 1.278C17.651 1.094 17.281 1.001 16.877 1H16.878ZM16.873 2.09V2.096C17.098 2.096 17.279 2.14 17.431 2.223C18.097 2.605 18.386 4.058 18.161 5.927C18.107 6.387 18.019 6.872 17.911 7.367C16.951 7.131 15.905 6.95 14.804 6.833C14.144 5.928 13.459 5.106 12.769 4.386C14.361 2.906 15.856 2.094 16.874 2.091L16.873 2.09ZM7.103 2.11C8.115 2.11 9.617 2.918 11.213 4.39C10.527 5.11 9.843 5.927 9.193 6.832C8.086 6.949 7.039 7.13 6.08 7.37C5.968 6.88 5.885 6.406 5.826 5.95C5.596 4.082 5.88 2.63 6.54 2.243C6.73 2.153 6.94 2.116 7.103 2.111V2.11ZM11.985 5.16C12.44 5.628 12.895 6.152 13.345 6.724C12.905 6.704 12.455 6.69 12 6.69C11.54 6.69 11.085 6.7 10.64 6.724C11.08 6.152 11.535 5.628 11.985 5.159V5.16ZM12 7.786C12.74 7.786 13.477 7.82 14.202 7.879C14.608 8.461 15.004 9.082 15.385 9.739C15.757 10.379 16.095 11.029 16.403 11.685C16.095 12.34 15.757 12.995 15.39 13.635C15.01 14.295 14.617 14.923 14.21 15.505C13.482 15.568 12.744 15.603 12 15.603C11.26 15.603 10.523 15.568 9.798 15.51C9.392 14.928 8.996 14.306 8.615 13.65C8.243 13.01 7.905 12.36 7.597 11.704C7.9 11.047 8.243 10.391 8.61 9.75C8.99 9.09 9.383 8.464 9.79 7.882C10.518 7.818 11.256 7.784 12 7.784V7.786ZM8.365 8.04C8.125 8.417 7.885 8.803 7.661 9.2C7.436 9.59 7.226 9.982 7.026 10.374C6.761 9.718 6.536 9.064 6.35 8.427C6.99 8.277 7.665 8.144 8.365 8.041V8.04ZM15.625 8.04C16.32 8.143 16.99 8.27 17.631 8.427C17.451 9.059 17.226 9.709 16.971 10.36C16.771 9.97 16.561 9.577 16.331 9.186C16.106 8.794 15.866 8.412 15.626 8.04H15.625ZM18.688 8.715C19.172 8.865 19.632 9.032 20.063 9.213C21.795 9.953 22.915 10.921 22.915 11.689C22.91 12.457 21.79 13.429 20.058 14.164C19.638 14.344 19.178 14.506 18.703 14.657C18.423 13.699 18.057 12.701 17.603 11.677C18.053 10.66 18.413 9.667 18.688 8.713V8.715ZM5.293 8.719C5.571 9.679 5.938 10.676 6.393 11.699C5.943 12.716 5.581 13.709 5.307 14.663C4.823 14.513 4.363 14.345 3.937 14.163C2.205 13.426 1.085 12.457 1.085 11.689C1.085 10.921 2.205 9.947 3.937 9.213C4.357 9.033 4.817 8.871 5.293 8.719V8.719ZM16.971 12.999C17.236 13.656 17.461 14.311 17.647 14.947C17.007 15.104 16.331 15.237 15.631 15.337C15.871 14.962 16.111 14.575 16.336 14.179C16.561 13.789 16.771 13.391 16.972 12.999H16.971ZM7.026 13.019C7.226 13.411 7.436 13.802 7.666 14.194C7.896 14.584 8.131 14.966 8.371 15.337C7.676 15.235 7.006 15.107 6.365 14.951C6.545 14.321 6.771 13.669 7.025 13.018L7.026 13.019ZM17.92 16.006C18.032 16.499 18.12 16.974 18.174 17.429C18.404 19.297 18.12 20.749 17.46 21.137C17.313 21.227 17.122 21.265 16.897 21.265C15.885 21.265 14.383 20.458 12.787 18.985C13.473 18.265 14.157 17.449 14.807 16.545C15.914 16.427 16.961 16.245 17.92 16.005V16.006ZM6.09 16.016C7.05 16.25 8.096 16.431 9.197 16.548C9.857 17.453 10.542 18.275 11.232 18.994C9.637 20.477 8.14 21.289 7.122 21.289C6.902 21.284 6.716 21.239 6.569 21.157C5.903 20.777 5.614 19.323 5.839 17.454C5.893 16.994 5.981 16.51 6.089 16.016H6.09ZM10.65 16.656C11.09 16.676 11.54 16.69 11.995 16.69C12.455 16.69 12.91 16.68 13.355 16.656C12.915 17.228 12.46 17.751 12.01 18.221C11.555 17.751 11.1 17.228 10.65 16.656Z" fill="#61DAFB"/>
</svg>
